<svg xmlns="http://www.w3.org/2000/svg" width="305" height="100" viewBox="0 0 305 100"><path fill="#E30917" d="M277 27v-26h-27v26h-26v27h26v26h27v-26h26v-27h-26z"/><path d="M36.6 75.6h2.9v2.8h-2.9v-2.8zm0 5h2.9v13.2h-2.9v-13.2zM45.7 86.9l-4.6-6.3h3.5l2.8 4.1 2.9-4.1h3.4l-4.5 6.1 5.1 7.1h-3.5l-3.4-4.9-3.2 4.9h-3.4l4.9-6.9zM10.6 85c-.2-1.6-1.4-2.5-3-2.5-1.5 0-3.6.8-3.6 4.8 0 2.2 1 4.5 3.5 4.5 1.7 0 2.9-1.1 3.1-3h2.9c-.5 3.4-2.7 5.3-6.1 5.3-4.2 0-6.4-2.9-6.4-6.8 0-4 2.2-7.1 6.5-7.1 3.1 0 5.7 1.5 6 4.8h-2.9zM14.6 80.6h2.7v2.6h.1c.3-1.4 2.1-2.9 3.9-2.9.7 0 .8.1 1.1.1v2.8c-.4 0-.8-.1-1.3-.1-2 0-3.6 1.6-3.6 4.5v6.3h-2.9v-13.3zM22.1 87.2c0-4 2.4-7 6.7-7 4.2 0 6.7 2.9 6.7 7s-2.4 7-6.7 7c-4.3 0-6.7-2.9-6.7-7m10.4 0c0-2.3-1.1-4.7-3.8-4.7-2.6 0-3.8 2.4-3.8 4.7 0 2.3 1.2 4.7 3.8 4.7 2.6 0 3.8-2.4 3.8-4.7M54.1 85.5h7.4v2.8h-7.4v-2.8zM63.5 80.6h2.7v2.6c.3-1.4 2.1-2.9 3.9-2.9.7 0 .8.1 1.1.1v2.8c-.4 0-.8-.1-1.3-.1-2 0-3.6 1.6-3.6 4.5v6.3h-2.9v-13.3zM71.2 87.2c0-4 2.4-7 6.7-7 4.2 0 6.7 2.9 6.7 7s-2.4 7-6.7 7c-4.3 0-6.7-2.9-6.7-7m10.5 0c0-2.3-1.2-4.7-3.8-4.7-2.6 0-3.8 2.4-3.8 4.7 0 2.3 1.1 4.7 3.8 4.7 2.6 0 3.8-2.4 3.8-4.7M97.3 93.8h-2.9v-1.8h-.1c-.7 1.3-2.3 2.2-3.8 2.2-3.5 0-4.9-1.7-4.9-5.2v-8.4h2.9v8.1c0 2.3.9 3.2 2.5 3.2 2.4 0 3.2-1.6 3.2-3.6v-7.7h2.9v13.2zM111.4 93.1c0 4-2.3 5.9-6.5 5.9-2.7 0-5.7-1-5.9-4.1h2.9c.4 1.7 1.7 1.9 3.2 1.9 2.4 0 3.4-1.2 3.4-3.4v-2h-.1c-.8 1.5-2.3 2.3-4 2.3-4.2 0-5.9-3.2-5.9-7 0-3.6 2.2-6.6 6-6.6 1.7 0 3.2.7 3.9 2.2h.1v-1.8h2.9v12.6zm-3-6.2c0-2.3-1-4.4-3.6-4.4s-3.5 2.4-3.5 4.6c0 2.2 1 4.4 3.5 4.4 2.7 0 3.6-2.3 3.6-4.6M115.3 88c0 2.1 1.1 3.9 3.6 3.9 1.7 0 2.7-.7 3.2-2.2h2.8c-.6 2.9-3.1 4.5-6 4.5-4.1 0-6.5-2.9-6.5-7 0-3.8 2.5-7 6.4-7 4.2 0 6.7 3.8 6.2 7.7h-9.7zm6.8-2c-.1-1.8-1.4-3.5-3.3-3.5-2 0-3.4 1.5-3.5 3.5h6.8zM138.2 82h-2.6v11.8h-1.6v-11.8h-2.2v-1.4h2.2v-1.2c0-2.3.6-3.9 3.2-3.9.5 0 .8 0 1.4.1v1.4c-.4-.1-.8-.1-1.2-.1-1.8 0-1.7 1.1-1.8 2.6v1.1h2.6v1.4zM139.4 80.6h1.5v3.1h.1c.8-2.1 2.6-3.4 5-3.3v1.6c-2.9-.2-4.9 2-4.9 4.7v7h-1.6v-13.1zM146.6 84.7c.2-3.1 2.3-4.4 5.3-4.4 2.3 0 4.9.7 4.9 4.3v7c0 .6.3 1 .9 1 .2 0 .4-.1.5-.1v1.4c-.4.1-.6.1-1 .1-1.6 0-1.9-.9-1.9-2.3h-.1c-1.1 1.7-2.3 2.7-4.8 2.7-2.4 0-4.4-1.2-4.4-3.9 0-3.7 3.6-3.8 7.1-4.2 1.3-.2 2.1-.3 2.1-1.8 0-2.2-1.6-2.7-3.5-2.7-2 0-3.5.9-3.5 3.1h-1.6zm8.6 1.9c-.3.4-1 .5-1.4.6-2.7.5-6.1.5-6.1 3 0 1.6 1.4 2.6 2.9 2.6 2.5 0 4.6-1.6 4.6-4.1v-2.1zM159.5 80.6h1.6v2.3h.1c.6-1.6 2.4-2.7 4.2-2.7 3.7 0 4.8 1.9 4.8 5.1v8.5h-1.6v-8.2c0-2.3-.7-4-3.4-4-2.6 0-4.1 1.9-4.1 4.5v7.7h-1.6v-13.2zM183 89.1c-.4 3.1-2.5 5.1-5.3 5.1l-.8 1.1c1.2-.2 3 0 3 1.6s-1.5 2.2-2.8 2.2c-.8 0-1.7-.2-2.4-.5l.4-.8c.4.2 1.3.4 2 .4s1.4-.3 1.4-1.1c0-.6-.5-1-1.1-1-.6 0-1 .1-1.3.2l-.4-.4 1.3-1.7c-3.6-.4-5.5-3.4-5.5-6.9 0-3.8 2.2-7 6.2-7 2.8 0 5 1.5 5.3 4.5h-1.6c-.4-2-1.6-3.2-3.7-3.2-3.1 0-4.6 2.8-4.6 5.6s1.5 5.6 4.6 5.6c2 0 3.6-1.6 3.8-3.8h1.5zM184.3 84.7c.2-3.1 2.3-4.4 5.3-4.4 2.3 0 4.9.7 4.9 4.3v7c0 .6.3 1 .9 1 .2 0 .4-.1.5-.1v1.4c-.4.1-.6.1-1 .1-1.6 0-1.9-.9-1.9-2.3-1.1 1.7-2.3 2.7-4.8 2.7-2.4 0-4.4-1.2-4.4-3.9 0-3.7 3.6-3.8 7.1-4.2 1.3-.2 2.1-.3 2.1-1.8 0-2.2-1.6-2.7-3.5-2.7-2 0-3.5.9-3.5 3.1h-1.7zm8.6 1.9c-.3.4-1 .5-1.4.6-2.7.5-6.1.5-6.1 3 0 1.6 1.4 2.6 2.9 2.6 2.5 0 4.6-1.6 4.6-4.1v-2.1zM209.1 84.5c-.1-2-1.6-2.9-3.5-2.9-1.4 0-3.1.6-3.1 2.3 0 1.4 1.6 1.9 2.7 2.2l2.2.5c1.8.3 3.8 1.4 3.8 3.7 0 2.9-2.8 4-5.3 4-3.1 0-5.2-1.4-5.4-4.7h1.6c.1 2.2 1.7 3.3 3.9 3.3 1.5 0 3.6-.7 3.6-2.5 0-1.5-1.4-2-2.9-2.4l-2.1-.5c-2.1-.6-3.7-1.3-3.7-3.5 0-2.7 2.6-3.7 5-3.7 2.6 0 4.7 1.4 4.8 4.3h-1.6zM213.7 87.7c0 2.4 1.3 5.2 4.3 5.2 2.4 0 3.6-1.4 4.1-3.4h1.6c-.7 3-2.4 4.7-5.8 4.7-4.2 0-6-3.2-6-7 0-3.5 1.8-7 6-7s5.9 3.7 5.8 7.4h-10zm8.5-1.4c-.1-2.4-1.6-4.7-4.2-4.7s-4.1 2.3-4.3 4.7h8.5zM197.3 78.1h1.6v-2.6h-1.6v2.6zm0 15.7h1.6v-13.2h-1.6v13.2z"/></svg>