<svg xmlns="http://www.w3.org/2000/svg" xmlns:xlink="http://www.w3.org/1999/xlink" style="position:absolute;width:0;height:0">
	<defs>
		<symbol id="external" viewBox="0 0 10 10">
			<title>External</title>
			<path d="M9 9H1V1h2V0H0v10h10V7H9M5 0v1h3.3L3.6 5.7l.7.7L9 1.7V5h1V0"/>
		</symbol>
		<symbol id="fb-logo" viewBox="0 0 54 54">
			<title>Facebook logo</title>
			<path d="M31.5 53v-24h7.5l.5-9h-8v-5.9c0-2.7 1.2-4.5 5-4.5h4v-8.2c-.8-.2-3.8-.4-7.1-.4-7.1 0-11.9 4.3-11.9 12.2v6.8h-8v9h8v24h10z"/>
			<!-- removed `fill="#3B5998"` because of Chrome bug not supporting external use css override -->
		</symbol>
		<symbol id="fk-logo" viewBox="0 0 54 54">
			<title>Flickr logo</title>
			<path d="M24.6 27c0 6.5-5.3 11.8-11.8 11.8-6.5 0-11.8-5.3-11.8-11.8 0-6.5 5.3-11.8 11.8-11.8 6.5 0 11.8 5.3 11.8 11.8z"/><path d="M53 27c0 6.5-5.3 11.8-11.8 11.8-6.5 0-11.8-5.3-11.8-11.8 0-6.5 5.3-11.8 11.8-11.8 6.5 0 11.8 5.3 11.8 11.8z"/>
			<!-- removed `fill="#2C75BA"` & `fill="#E73A8C"` because of Chrome bug not supporting external use css override -->
		</symbol>
		<symbol id="yt-logo" viewBox="0 0 54 54">
			<title>YouTube logo</title>
			<path d="M52.5 16.4s-.5-3.6-2.1-5.2c-2-2.1-4.2-2.1-5.2-2.2-7.3-.5-18.2-.5-18.2-.5s-10.9 0-18.2.5c-1 .1-3.2.1-5.2 2.2-1.6 1.6-2.1 5.2-2.1 5.2s-.5 4.2-.5 8.4v3.9c0 4.2.5 8.4.5 8.4s.5 3.6 2.1 5.2c2 2.1 4.6 2 5.7 2.2 4.2.4 17.7.5 17.7.5s10.9 0 18.2-.5c1-.1 3.2-.1 5.2-2.2 1.6-1.6 2.1-5.2 2.1-5.2s.5-4.2.5-8.4v-3.9c0-4.2-.5-8.4-.5-8.4zm-30.9 17.1v-14.6l14 7.3-14 7.3z"/>
			<!-- removed `fill="#CD201F"` because of Chrome bug not supporting external use css override -->
		</symbol>
		<symbol id="secours-pict" viewBox="0 0 80 50">
			<title>Secours</title>
			<path d="M13.7 33.7c3.7 0 6.6 3 6.6 6.6s-3 6.6-6.6 6.6-6.6-3-6.6-6.6 2.9-6.6 6.6-6.6zm0 3.6c-1.7 0-3.1 1.4-3.1 3.1 0 1.7 1.4 3.1 3.1 3.1s3.1-1.4 3.1-3.1c0-1.8-1.4-3.1-3.1-3.1zM65.3 33.7c3.7 0 6.6 3 6.6 6.6s-2.9 6.7-6.6 6.7-6.6-3-6.6-6.6 2.9-6.7 6.6-6.7zm0 3.6c-1.7 0-3.1 1.4-3.1 3.1 0 1.7 1.4 3.1 3.1 3.1 1.7 0 3.1-1.4 3.1-3.1 0-1.8-1.4-3.1-3.1-3.1zM34 10.1l-12 3.7-11.1 11.1-9.2 2.2-.7 2.4v10.8l5.1 4.5c-.8-1.3-1.2-2.8-1.2-4.5 0-4.9 4-8.8 8.8-8.8s8.8 4 8.8 8.8c0 1.6-.4 3.1-1.2 4.5h36.5c-.8-1.3-1.2-2.8-1.2-4.5 0-4.8 3.9-8.7 8.7-8.7 4.8 0 8.7 3.9 8.7 8.7 0 1.6-.5 3.2-1.2 4.5l5.8-4.4v-14.9l-.8-15.4h-43.8zm-2.6 14.8h-16.8l8.9-8.9h7.9v8.9zm23.3 2.9h-6.1v6.1h-5.8v-6.1h-6.1v-5.8h6.1v-6.1h5.8v6.1h6.1v5.8zM34 9.3h3.6v-1.2c0-1-.8-1.8-1.8-1.8s-1.8.8-1.8 1.8v1.2zM35.5 3.9h.5v1.9h-.5zM37.988 6.85l-.354-.354 1.343-1.343.354.354zM33.645 6.83l-1.343-1.343.354-.354 1.343 1.343zM73.7 9.3h3.6v-1.2c0-1-.8-1.8-1.8-1.8s-1.8.8-1.8 1.8v1.2zM75.2 3.9h.5v1.9h-.5zM77.615 6.812l-.353-.354 1.345-1.342.353.354zM73.273 6.8l-1.343-1.343.354-.354 1.343 1.343z"/>
		</symbol>
		<symbol id="as-pict" viewBox="0 0 80 50">
			<title>Action Sociale</title>
			<path d="M45.7 18.3c-.9.9-2.1 1.4-3.3 1.4-1.1 0-2.1-.4-2.8-1.1l-11-11-1 1 3.8 3.8-12.4 12.3c-.4.4-.7.8-.9 1.3-.3.7-.5 1.5-.4 2.3-3.3-3.3-5-7.5-5-11.8 0-4.1 1.6-8 4.6-11 3-2.9 6.9-4.6 11.1-4.6 2.5 0 4.8.6 7 1.6.9.4 1.7 1 2.6 1.6l.4.3 7.7 7.6c1.5 1.8 1.3 4.6-.4 6.3zM37 18l-12.4 12.4c-.6.6-1.4.9-2.2.9-.9 0-1.7-.4-2.4-1-.6-.6-1-1.5-1-2.4 0-.8.3-1.6.9-2.2l12.3-12.3 4.8 4.6zM67.3 16.5c0 4.3-1.8 8.5-5.1 11.8l-6.5 6.5-13.3 13.3c-.6.6-1.4.9-2.2.9-.9 0-1.7-.4-2.4-1-.6-.6-1-1.4-1-2.3 0-.8.3-1.6.9-2.2l13-13-1.2-1.2-13 13c-.6.6-1.4.9-2.2.9-.9 0-1.7-.4-2.4-1-.6-.6-1-1.5-1-2.4 0-.8.3-1.6.9-2.2l13-13-1.4-1.4-13 13c-.6.6-1.4.9-2.2.9-.9 0-1.7-.4-2.4-1-.6-.6-1-1.4-1-2.3 0-.8.3-1.6.9-2.2l12.3-12.3.4.4c1 1 2.3 1.5 3.8 1.5 1.6 0 3.2-.7 4.3-1.8 2.3-2.3 2.4-6 .3-8.1l-6-6c3.1-2.8 6.8-4.3 10.8-4.3 4.2 0 8.1 1.6 11.1 4.6 3 2.9 4.6 6.8 4.6 10.9z"/>
		</symbol>
		<symbol id="form-pict" viewBox="0 0 80 50">
			<title>Formation</title>
			<path d="M42.2 44.5c-.7-3.6-7.7-9.7-16.4-9.9-9-.2-17 6.8-17 10.3-.1 3.6 3.7 4.1 3.7 4.1h8.6c-1.8-1.4-3-3.6-3-6 0-4.3 3.5-7.7 7.7-7.7 4.3 0 7.7 3.5 7.7 7.7 0 2.4-1.2 4.6-2.9 6h8c2.5 0 4.2-1.4 3.6-4.5zM30.3 12.6c-2.9-2.4-3.3-6.7-1-9.6 2.4-2.9 6.7-3.3 9.6-.9 2.9 2.4 3.3 6.7 1 9.6-2.4 2.9-6.7 3.3-9.6.9zM74.9 41.3h-15.4l11.6-12.7c.1-.1 1.1-1.1 1.4-1.7 1.4-2.3 1.4-5.1.2-7.3-1.8-3.3-5.5-8.7-12-11.5-6.5-2.7-10.1-1.7-12.1-.9-3 1.2-4.9 3.3-6.1 5.1l-6.5 11.5-10.1 4.1c-1.7.7-2.6 2.7-1.8 4.4.5 1.3 1.8 2.1 3.1 2.1.4 0 .9-.1 1.3-.3l11.2-4.6c.1 0 .1-.1.1-.1l.6-.3.3-.2.5-.5c0-.1.1-.1.2-.2l5.2-8.3v5.7l-6.5 9c-1.2 1.6-.8 3.9.8 5 .6.5 1.4.7 2.1.7 1.1 0 2.2-.5 2.9-1.5l7.2-9.9c.4-.6.7-1.4.7-2.1v-5c.5.2.9.5 1.4.8 1 .7 2 1.6 2.8 2.5l-9.9 16.4c-.5.7-1.5 1.9-.9 4.5.4 1.7 2.3 3.1 3.8 3.1h24.2c2.1 0 3.9-1.7 3.9-3.9-.3-2.2-2.1-3.9-4.2-3.9zM31.8 43c0-3.3-2.7-6-6-6s-6 2.7-6 6 2.7 6 6 6c3.4-.1 6-2.7 6-6zM20.8 13h-7v-7h-7v7h-6.8v7h6.8v7h7v-7h7z"/>
		</symbol>
		<symbol id="contact-location" viewBox="0 0 60 60">
			<title>Adresse</title>
			<path d="M30 1C17.7 1 8 10.7 8 22.8 8 35 30 59 30 59s22-24 22-36.2S42.3 1 30 1zm0 28.8c-4 0-7.1-3-7.1-7s3.1-7 7.1-7 7.1 3 7.1 7-3.1 7-7.1 7z"/>
		</symbol>
		<symbol id="contact-phone" viewBox="0 0 60 60">
			<title>Téléphone</title>
			<path d="M58.4 49.7c-3.3 7.9-11 9.3-13.5 9.3-.7 0-12.3.6-28.8-15.1C2.8 31.3 1.2 17.7 1 15.1c-.1-2.5.6-8.8 9.3-13.5 1-.6 3.2-.8 3.7-.3.2.2 7.5 12.2 7.7 12.6.2.4.3.8.3 1.2 0 .5-.4 1.2-1.2 2.1-.8.8-1.6 1.6-2.5 2.3-.9.7-1.8 1.4-2.5 2.2-.8.8-1.2 1.4-1.2 1.9.1 1.3 1.1 5.9 9.1 12.9s11.8 9 12.2 9.1c.4.1.7.2.9.2.5 0 1.1-.4 1.9-1.2.8-.8 3.3-4.3 4.2-5.1.8-.8 1.5-1.2 2.1-1.2.4 0 .8.1 1.2.3.4.2 12.4 7.2 12.6 7.4.5.6.1 2.6-.4 3.7"/>
		</symbol>
		<symbol id="contact-email" viewBox="0 0 60 60">
			<title>Courriel</title>
			<path d="M1 44c0 1.1.9 2 2 2h54c1.1 0 2-.9 2-2V15c0-1.1-.9-2-2-2H3c-1.1 0-2 .9-2 2v29zm29-3.1L41.6 30l14.7 13.4H3.9L18.6 30m37.9 12.2l-14.1-13 14.1-13v26zm-2.8-26.7L30 37.2 6.3 15.5h47.4zm-50.2.7l14.1 13-14.1 13v-26z"/>
		</symbol>
	</defs>
</svg>
